# xmcd
#
# Track frame offsets: 
#        150
#        25575
#        49132
#        75577
#        102200
#        122672
#        148127
#        168227
#        189135
#        214302
#
# Disc length: 3150 seconds
#
# Revision: 0
# Processed by: cddbd v1.5.2PL0 Copyright (c) Steve Scherf et al.
# Submitted via: ExactAudioCopy v1.0b3
#
DISCID=7e0c4c0a
DTITLE=Manh Quynh - Tra Loi Thu Em
DYEAR=1996
DGENRE=
TTITLE0=Tra loi thu em
TTITLE1=Neu chung minh cach tro
TTITLE2=Doan buon dem mua
TTITLE3=Xin thoi gian qua mau
TTITLE4=Dem buon pho thi
TTITLE5=Suong trang mien que ngoai
TTITLE6=Phan bac
TTITLE7=Xin lam nguoi xa la
TTITLE8=Linh hon tuong da
TTITLE9=Khong con nho nguoi yeu
EXTD=
EXTT0=
EXTT1=
EXTT2=
EXTT3=
EXTT4=
EXTT5=
EXTT6=
EXTT7=
EXTT8=
EXTT9=
PLAYORDER=
